<svg version="1.1" id="hangar-logo" xmlns="http://www.w3.org/2000/svg" xmlns:xlink="http://www.w3.org/1999/xlink" x="0px"
	 y="0px" width="200px" height="54px" viewBox="0 0 664.589 170.079" enableBackground="new 0 0 664.589 170.079"
	 xml:space="preserve">
	<path id="background-fill" fill="#FFFFFF" d="M0,0v170.08h664.59V0H0z"/>
<g>
	<path id="letters-fill" fill="#2A83FC" d="M142.742,78.416h-35.44V60.762H96.86v48.385h10.443V88.025h35.44v21.122h10.452V60.762h-10.453
		L142.742,78.416z M177.59,109.147h12.464l8.866-13.77h24.69l8.865,13.77h12.46L211.274,56.85l-33.682,52.297H177.59z
		 M217.404,85.68h-12.186l6.057-9.478l6.13,9.478H217.404z M312.154,92.13l-45.712-35.92v52.937h10.44V78.093l45.72,35.244V60.762
		h-10.448V92.13z M385.52,93.772h14.028c-2.195,5.426-11.098,7.376-18.316,7.376c-12.612,0-22.874-7.268-22.874-16.203
		c0-8.97,10.262-16.268,22.874-16.268c8.44,0,16.63,3.957,21.91,10.584l1.1,1.385V66.127l-0.267-0.185
		c-6.528-4.49-14.604-6.965-22.743-6.965c-18.61,0-33.75,11.65-33.75,25.967c0,14.273,15.14,25.887,33.75,25.887
		c18.138,0,29.858-9.262,29.858-23.598v-3.076h-25.57L385.52,93.772L385.52,93.772z M426.798,109.147h12.462l8.87-13.77h24.684
		l8.868,13.77h12.46L460.474,56.85L426.798,109.147z M454.418,85.68l6.058-9.478l6.132,9.478H454.418z M553.978,87.847
		c6.58-2.1,10.047-6.566,10.047-12.954c0-10.42-9.88-14.13-19.125-14.13h-29.264v48.384h10.443v-20.03h16.458l12.672,20.03h12.452
		L553.978,87.847L553.978,87.847z M553.155,74.893c0,2.25-1.082,4.55-9.105,4.55h-17.97v-9.006h17.97
		C552.12,70.437,553.155,72.819,553.155,74.893z"/>
</g>
</svg>