<svg version="1.1" id="ohg-logo" xmlns="http://www.w3.org/2000/svg" xmlns:xlink="http://www.w3.org/1999/xlink" x="0px" y="0px"
	 width="612px" height="54.56px" viewBox="0 0 612 54.56" enableBackground="new 0 0 612 54.56" xml:space="preserve">
<g>
	<path id="ohg-fill" fill="#FFFFFF" d="M0,22.325C0,8.544,10.591,0,22.21,0c12.984,0,22.267,10.138,22.267,21.87
		c0,11.731-9.226,21.867-22.324,21.867C8.883,43.737,0,33.203,0,22.382V22.325z M10.763,21.813c0,6.435,4.384,12.471,11.616,12.471
		c7.631,0,11.333-6.948,11.333-12.357c0-5.467-3.702-12.474-11.447-12.474c-7.462,0-11.504,6.38-11.504,12.301v0.058
		C10.761,21.813,10.763,21.813,10.763,21.813z M48.464,42.939h9.454V26.14c0-0.968,0-2.678,0.683-4.213
		c0.683-1.538,1.993-2.792,4.67-2.792c2.392,0,3.531,1.197,4.157,2.678c0.569,1.423,0.569,3.074,0.569,3.93v17.196h9.455V25.683
		c0-0.91,0-2.506,0.682-3.929c0.626-1.423,1.936-2.62,4.557-2.62c2.448,0,3.644,1.082,4.213,2.564
		c0.626,1.424,0.626,3.132,0.626,4.442v16.799h9.455V25.684c0-7.004-0.456-9.11-3.417-12.243c-2.564-2.677-6.094-3.191-8.315-3.191
		c-3.303,0-5.865,1.196-7.743,2.905c-0.91,0.799-1.652,1.766-2.279,2.734c-0.569-1.082-1.196-1.936-1.879-2.619
		c-2.336-2.449-5.07-3.02-7.233-3.02c-3.303,0-5.525,1.083-6.891,2.221c-1.365,1.082-1.936,2.22-1.936,2.22v-3.356h-8.826v31.604
		H48.464z M102.226,42.939h9.452V25.743c0-3.247,0.741-6.607,5.411-6.607c4.215,0,4.956,3.078,4.956,6.549v17.254h9.454v-19.76
		c0-4.271-1.082-12.929-11.73-12.929c-5.638,0-7.632,2.905-8.714,4.443v-3.359h-8.826V42.94h-0.002v-0.001L102.226,42.939
		L102.226,42.939z M136.794,0.799h9.455v7.176h-9.455V0.799z M136.794,11.334h9.455v31.604h-9.455V11.334z M173.982,30.923
		c-1.024,1.937-2.903,4.215-6.834,4.215c-4.498,0-7.516-3.416-7.516-8.028c0-2.278,0.741-4.328,2.05-5.808
		c1.369-1.481,3.247-2.335,5.467-2.22c3.93,0,5.808,2.278,6.834,4.442h9.567c-1.592-7.745-8.371-13.267-16.741-13.267
		c-9.454,0-16.686,7.514-16.686,16.799c0,9.397,7.346,16.913,16.913,16.913c8.542,0,14.864-5.866,16.573-13.043h-9.626
		L173.982,30.923L173.982,30.923z M185.886,27.053c0-7.689,5.522-16.744,17.027-16.744c11.504,0,17.028,9.055,17.028,16.8
		s-5.522,16.8-17.028,16.8c-11.504,0-17.027-9.055-17.027-16.8C185.886,27.109,185.886,27.053,185.886,27.053z M195.339,27.166
		c0,4.557,3.473,7.917,7.573,7.917c4.1,0,7.573-3.36,7.573-7.973c0-4.612-3.474-7.973-7.573-7.973c-4.102,0-7.573,3.36-7.573,7.973
		V27.166z M223.87,42.939h9.454V26.14c0-0.968,0-2.678,0.683-4.213c0.682-1.538,1.992-2.792,4.67-2.792
		c2.391,0,3.53,1.197,4.156,2.678c0.569,1.423,0.569,3.074,0.569,3.93v17.196h9.455V25.683c0-0.91,0-2.506,0.682-3.929
		c0.626-1.423,1.936-2.62,4.557-2.62c2.448,0,3.644,1.082,4.213,2.564c0.626,1.424,0.626,3.132,0.626,4.442v16.799h9.455V25.684
		c0-7.004-0.455-9.11-3.416-12.243c-2.564-2.677-6.093-3.191-8.315-3.191c-3.301,0-5.866,1.196-7.745,2.905
		c-0.91,0.799-1.651,1.766-2.278,2.734c-0.569-1.082-1.196-1.936-1.879-2.619c-2.335-2.45-5.07-3.02-7.232-3.02
		c-3.305,0-5.526,1.083-6.891,2.221c-1.369,1.082-1.937,2.22-1.937,2.22v-3.356h-8.826v31.606l0,0v-0.002L223.87,42.939
		L223.87,42.939z M283.135,42.939V23.692h20.33v19.247h4.729V0.799h-4.729v18.734h-20.33V0.799h-4.67v42.14
		C278.466,42.939,283.135,42.939,283.135,42.939z M316.965,28.818c0.228,7.687,6.778,11.389,11.96,11.333
		c4.727,0,8.542-2.335,10.534-6.323h4.385c-1.423,3.303-3.587,5.808-6.207,7.457c-2.564,1.652-5.58,2.507-8.715,2.507
		c-10.65,0-16.171-8.485-16.171-16.115c0-8.996,6.946-16.23,16.117-16.23c4.325,0,8.312,1.538,11.219,4.328
		c3.53,3.416,5.238,8.144,4.783,13.042C344.868,28.818,316.965,28.818,316.965,28.818z M340.713,25.457
		c-0.286-5.353-5.467-10.592-11.788-10.421c-6.606,0-11.504,4.84-11.903,10.421H340.713z M380.177,42.939h-4.215v-6.321
		c-2.391,4.613-7.059,7.176-12.526,7.176c-9.966,0-15.89-7.743-15.89-16.171c0-8.999,6.548-16.176,15.89-16.176
		c6.548,0,11.047,3.817,12.526,7.291v-6.435h4.215V42.939z M351.703,27.679c0.056,5.525,3.873,12.188,12.301,12.188
		c5.409,0,9.396-3.132,11.047-7.46c0.683-1.482,1.027-3.189,1.027-4.84c0.056-1.707-0.287-3.416-0.969-4.898
		c-1.709-4.213-5.808-7.346-11.219-7.346c-7.061,0-12.188,5.468-12.188,12.302L351.703,27.679L351.703,27.679z M386.955,42.939
		h4.213V0.799h-4.213V42.939z M400.281,42.939h4.157V15.662h6.721v-3.359h-6.721V0.799h-4.157v11.504h-6.035v3.36h6.035V42.939z
		 M414.349,42.939h4.215V25.515c0-2.791,0.797-5.297,2.45-7.118c1.595-1.823,4.1-3.017,7.457-3.017c3.648,0,6.039,1.141,7.69,3.132
		c1.538,1.993,2.22,4.784,2.22,8.086V42.94h4.157V26.425c0-4.385-0.796-8.086-2.905-10.763c-2.106-2.677-5.294-4.213-10.134-4.213
		c-4.329-0.115-9.056,1.823-10.935,5.865v-5.295V0.799h-4.215L414.349,42.939L414.349,42.939z M487.28,11.733
		c-3.301-6.89-11.22-11.674-19.761-11.674c-12.187,0-22.093,9.11-22.093,21.754c0,12.471,9.737,21.924,22.038,21.924
		c8.488,0,16.913-4.612,20.56-12.526c1.254-2.619,1.823-5.695,1.878-8.144h-26.423v3.873h20.958
		c-0.685,3.303-2.735,6.491-5.695,8.826c-2.903,2.279-6.832,3.817-11.277,3.817c-9.225,0-17.313-7.062-17.313-17.768
		c0-10.534,8.028-17.597,17.255-17.597c3.761,0,7.061,1.082,9.796,2.961c1.82,1.196,3.415,2.733,4.726,4.557h5.351L487.28,11.733
		L487.28,11.733z M494.459,42.939h4.156V26.256c0-6.948,3.305-10.651,9.227-10.651h0.398v-4.157
		c-3.587,0.113-7.573,1.31-9.794,5.866v-5.012h-3.987V42.939L494.459,42.939z M507.101,27.564c0-8.542,6.379-16.118,16.231-16.118
		c9.909,0,16.286,7.575,16.286,16.176c0,8.598-6.377,16.113-16.286,16.113c-9.852,0-16.231-7.516-16.231-16.113L507.101,27.564
		L507.101,27.564z M511.259,27.679c0,6.948,5.297,12.188,12.073,12.188c6.832,0,12.07-5.239,12.07-12.243
		c0-7.007-5.238-12.244-12.07-12.244c-6.776,0-12.073,5.239-12.073,12.244L511.259,27.679L511.259,27.679z M572.706,12.303h-4.214
		v17.313c0,6.377-3.646,10.191-10.022,10.25c-6.891,0.058-9.852-4.384-9.852-10.992V12.302h-4.158v17.372
		c0,7.46,3.36,13.949,12.927,14.122c5.466,0.058,9.624-2.335,11.334-6.321v5.466h3.985V12.303L572.706,12.303z M579.485,12.303
		h3.985v6.38c2.507-4.442,6.949-7.232,12.814-7.232C606.592,11.45,612,19.821,612,27.736c0,8.542-6.205,16.059-15.716,16.059
		c-6.778,0-11.162-3.929-12.587-7.118v6.264V54.56h-4.212L579.485,12.303L579.485,12.303z M607.788,27.564
		c0-5.752-4.045-12.243-12.302-12.243c-3.416,0-6.434,1.368-8.655,3.589c-2.106,2.22-3.416,5.297-3.416,8.769
		c0,3.416,1.311,6.491,3.53,8.713c2.165,2.165,5.24,3.474,8.658,3.474c6.891,0,12.188-5.239,12.188-12.243v-0.058L607.788,27.564
		L607.788,27.564z"/>
</g>
</svg>
